<svg width="69" height="224" xmlns="http://www.w3.org/2000/svg" xmlns:xlink="http://www.w3.org/1999/xlink" overflow="hidden"><defs><clipPath id="clip0"><rect x="210" y="281" width="69" height="224"/></clipPath></defs><g clip-path="url(#clip0)" transform="translate(-210 -281)"><path d="M211 364.52C211 362.024 213.024 360 215.52 360L273.48 360C275.976 360 278 362.024 278 364.52L278 499.48C278 501.976 275.976 504 273.48 504L215.52 504C213.024 504 211 501.976 211 499.48Z" fill="#FFFFFF" fill-rule="evenodd"/><path d="M211 315C211 296.222 225.998 281 244.5 281 263.002 281 278 296.222 278 315 278 333.778 263.002 349 244.5 349 225.998 349 211 333.778 211 315Z" fill="#FFFFFF" fill-rule="evenodd"/></g></svg>